<?xml version="1.0" standalone="no"?>
<!DOCTYPE svg PUBLIC "-//W3C//DTD SVG 20010904//EN"
 "http://www.w3.org/TR/2001/REC-SVG-20010904/DTD/svg10.dtd">
<svg version="1.0" xmlns="http://www.w3.org/2000/svg"
 width="159.000000pt" height="193.000000pt" viewBox="0 0 159.000000 193.000000"
 preserveAspectRatio="xMidYMid meet">

<g transform="translate(0.000000,193.000000) scale(0.100000,-0.100000)"
fill="#000000" stroke="none">
<path d="M700 1879 c-112 -7 -163 -20 -244 -61 -87 -44 -164 -126 -214 -228
-55 -111 -71 -176 -85 -344 l-12 -139 -39 -11 c-65 -18 -81 -51 -81 -164 0
-85 4 -105 28 -157 15 -33 50 -82 76 -110 40 -41 54 -67 80 -145 79 -232 208
-380 391 -447 67 -25 88 -28 195 -28 142 1 201 18 309 92 111 76 199 207 265
397 28 79 39 96 90 145 74 71 103 140 103 251 1 108 -17 144 -81 167 l-51 18
0 45 c0 216 -76 451 -185 568 -117 126 -273 170 -545 151z m428 -295 c62 -31
141 -115 176 -187 87 -178 100 -530 31 -805 -50 -195 -190 -391 -325 -455
l-55 -26 -3 23 c-2 15 45 100 143 257 81 129 156 244 168 256 18 20 19 26 8
47 -10 17 -12 63 -9 165 3 112 1 142 -10 146 -8 3 -19 2 -25 -1 -8 -5 -7 -2 1
7 6 7 12 17 12 22 0 15 -85 46 -146 53 -45 5 -70 15 -106 41 -27 19 -48 39
-48 44 0 5 -5 9 -11 9 -22 0 -128 85 -129 103 0 11 -8 17 -25 17 -18 0 -25 -5
-25 -19 0 -12 -37 -48 -102 -100 -91 -71 -108 -81 -144 -81 -53 0 -144 -29
-151 -48 -3 -8 0 -18 8 -23 16 -10 -4 -13 -59 -10 -28 2 -32 0 -32 -23 0 -14
5 -26 11 -26 12 0 5 -137 -13 -238 -9 -54 -8 -65 6 -75 20 -16 336 -508 336
-524 0 -35 -89 14 -166 91 -92 92 -169 237 -209 391 -31 120 -45 485 -25 627
13 86 41 161 90 237 58 89 73 93 162 45 70 -37 77 -39 168 -39 108 0 139 10
252 80 65 40 79 45 133 45 46 0 74 -7 113 -26z m-249 -391 c42 -31 88 -67 104
-79 l27 -23 -40 -11 c-33 -9 -40 -15 -38 -32 2 -16 -7 -24 -46 -40 -84 -33
-138 -30 -238 12 -83 35 -127 59 -83 47 11 -3 37 -9 58 -13 35 -6 39 -4 35 12
-2 13 -17 22 -46 29 l-42 10 93 73 c56 44 101 72 116 72 14 0 57 -24 100 -57z
m-358 -150 c25 3 60 -6 132 -36 54 -22 94 -43 90 -47 -8 -7 -156 -60 -167 -60
-3 0 -6 8 -6 18 0 26 -20 42 -52 42 -29 0 -54 -31 -44 -56 3 -8 3 -14 -1 -14
-10 0 -118 64 -121 72 -2 4 -10 8 -18 8 -8 0 -14 6 -14 13 0 17 152 77 161 64
4 -5 22 -7 40 -4z m618 -5 c14 0 19 -3 12 -7 -7 -5 3 -14 29 -26 22 -10 40
-22 40 -26 0 -8 -83 -69 -94 -69 -3 0 -6 7 -6 15 0 23 -39 39 -66 26 -19 -8
-24 -18 -24 -46 0 -19 -3 -35 -6 -35 -14 0 -214 83 -214 89 0 3 48 24 107 46
81 31 117 39 152 37 25 -2 57 -4 70 -4z m364 -54 c15 -74 -23 -217 -69 -255
-16 -13 -17 -11 -10 36 3 28 9 97 12 155 3 58 8 111 10 119 8 25 48 -13 57
-55z m-1351 -89 c4 -77 9 -148 12 -157 10 -41 -15 -13 -45 49 -54 109 -51 259
5 251 20 -3 21 -11 28 -143z m316 -34 c2 -15 11 -21 28 -21 13 0 24 6 24 13 0
13 230 100 240 91 3 -3 6 -78 8 -166 3 -152 2 -160 -15 -153 -10 5 -31 9 -46
9 -18 1 -36 11 -51 31 l-24 30 64 109 c36 60 63 111 60 113 -2 2 -33 -46 -67
-108 -35 -61 -71 -114 -79 -117 -8 -3 -18 -10 -21 -14 -3 -5 -65 -6 -142 -2
-105 5 -137 10 -137 20 0 8 -7 14 -16 14 -13 0 -14 9 -10 53 3 28 8 87 12 130
l6 78 81 -44 c58 -31 83 -51 85 -66z m782 -34 c0 -162 5 -157 -162 -157 -70 0
-128 4 -128 9 0 5 -9 11 -19 14 -13 3 -39 44 -76 117 -31 61 -55 115 -53 120
5 12 218 -73 218 -87 0 -7 11 -13 25 -13 14 0 25 5 25 11 0 23 136 119 158
111 9 -3 12 -37 12 -125z m-388 -31 c62 -124 59 -149 -22 -162 -8 -1 -25 -6
-37 -9 l-23 -7 0 158 c1 184 -1 184 82 20z m-271 -148 c6 -9 -43 -183 -54
-194 -9 -10 -36 14 -132 114 l-100 104 140 -6 c77 -4 142 -12 146 -18z m639 6
c0 -16 -196 -214 -209 -212 -10 2 -20 31 -33 88 -9 47 -20 95 -23 108 -5 22
-5 22 130 22 74 0 135 -3 135 -6z m-710 -236 c0 -17 21 -23 58 -19 6 1 12 -2
12 -8 0 -12 60 -32 73 -24 6 3 7 1 3 -6 -4 -6 -1 -14 7 -17 12 -4 10 -20 -12
-93 -14 -49 -30 -89 -36 -90 -8 -2 -268 392 -307 464 -5 11 38 -27 96 -85 58
-57 106 -113 106 -122z m118 202 c10 -12 34 -23 55 -25 20 -3 46 -10 57 -17
15 -10 27 -10 55 1 19 7 48 14 63 17 15 3 39 14 54 25 l28 19 6 -27 c3 -16 8
-35 11 -43 11 -31 31 -135 27 -139 -3 -3 -53 9 -113 26 l-108 32 -94 -24 c-94
-24 -135 -24 -126 0 3 7 15 46 27 86 30 102 31 102 58 69z m444 -235 c-81
-129 -150 -235 -154 -235 -6 0 -58 157 -58 177 0 11 44 33 65 33 7 0 26 5 42
12 31 13 38 15 53 17 6 0 10 11 10 23 0 15 31 54 92 115 51 51 94 93 95 93 1
0 -64 -106 -145 -235z m-116 23 c-8 -4 -47 -12 -87 -18 -80 -11 -172 -5 -233
17 -22 7 -48 11 -58 7 -10 -3 -18 -1 -18 4 0 5 46 20 103 33 l102 25 103 -30
c66 -19 97 -33 88 -38z m-108 -94 c2 -14 -3 -23 -17 -27 -21 -5 -151 3 -151
10 0 2 5 13 11 24 9 17 19 19 82 17 65 -3 72 -5 75 -24z m-64 -66 l89 -3 13
-44 c20 -69 17 -71 -112 -71 -144 0 -148 3 -122 83 15 42 23 55 32 48 7 -6 52
-11 100 -13z m106 -137 c0 -15 -29 -21 -105 -21 -82 0 -135 8 -135 21 0 5 54
9 120 9 66 0 120 -4 120 -9z"/>
</g>
</svg>
